# xmcd
#
# Track frame offsets:
#	150
#	14160
#	28128
#	43612
#	57663
#	71533
#
# Disc length: 1136 seconds
#
# Revision: 0
# Processed by: cddbd v1.5.2PL0 Copyright (c) Steve Scherf et al.
# Submitted via: audiograbber 1.83.01
#
DISCID=56046e06
DTITLE=Daywind - Stand Still
DYEAR=2000
DGENRE=Gospel
TTITLE0=High Key A w/ BGVs
TTITLE1=High Key A w/o BGVs
TTITLE2=New Releases
TTITLE3=Low Key E w/ BGVs
TTITLE4=Low Key E w/o BGVs
TTITLE5=Vocal Demo
EXTD=Made Popular by The Isaacs
EXTT0=
EXTT1=
EXTT2=
EXTT3=
EXTT4=
EXTT5=
PLAYORDER=
